<svg width="146" height="41" viewBox="0 0 146 41" fill="none" xmlns="http://www.w3.org/2000/svg">
<path fill-rule="evenodd" clip-rule="evenodd" d="M0 22.0972C2.31187 20.0058 14.1507 8.14893 30.5254 10.2548C33.1236 7.36378 34.6051 3.88787 35.3009 0C35.2529 3.75375 34.3166 7.28531 32.113 10.5C32.8601 10.6357 33.6151 10.8014 34.3793 10.9982C35.6932 9.7117 36.7801 8.19683 37.7085 6.52423C37.2307 8.3378 36.5269 9.95634 35.5176 11.3137C35.9236 11.4339 36.3319 11.5638 36.7414 11.7025C39.6931 8.82367 41.494 5.24785 42.4851 1.1816C42.1817 5.22322 40.9123 8.95849 38.256 12.2536C38.9734 12.5335 39.6976 12.8426 40.4276 13.1822C43.8059 11.1109 46.266 8.14494 48.0772 4.54801C46.9344 8.2104 44.9863 11.3955 41.8886 13.8998C42.4771 14.2035 43.0679 14.5277 43.6633 14.8726C45.5076 13.9306 47.1807 12.6633 48.7353 11.1724C47.6278 12.952 46.3413 14.4479 44.8152 15.5638C45.2156 15.8124 45.6171 16.0706 46.0197 16.3386L45.8634 16.1693C49.3763 14.5012 52.5333 12.157 55.4508 9.35927C53.3248 12.7747 50.8202 15.5887 47.7932 17.5744C48.1673 17.8471 48.5414 18.1283 48.9178 18.4184C50.6217 17.4983 52.1786 16.2998 53.6316 14.9057C52.5641 16.6212 51.3311 18.0731 49.8758 19.175C50.5841 19.7462 51.2946 20.3486 52.0098 20.9835C56.0644 20.144 59.5168 18.0887 62.5472 15.179C60.1749 18.3553 57.1821 20.7886 53.2997 22.1614C53.8221 22.6509 54.3456 23.1579 54.8702 23.683C56.8149 23.3254 58.5724 22.4546 60.1909 21.2075C58.8758 22.6194 57.3327 23.6921 55.4804 24.3002C55.9138 24.7428 56.3472 25.1977 56.7818 25.6649C59.8316 25.1365 62.5176 23.729 64.9435 21.6934C62.984 23.9802 60.6117 25.7 57.6577 26.6223C58.3455 27.3862 59.0355 28.1817 59.7278 29.0099C52.9336 36.4974 45.4733 41.096 36.8155 40.5052C44.7468 38.8594 51.46 35.3671 56.3883 29.1652C38.6814 8.93567 19.777 8.3589 0 22.0972ZM27.7083 39.4115C27.6798 39.4103 27.6501 39.4103 27.6216 39.4092H27.5863C26.464 39.4696 24.3346 39.4502 21.9178 38.2823C20.1613 37.4338 18.6273 36.1552 17.4583 34.5687C16.8857 33.7907 15.4224 31.6572 15.1498 28.3665C15.0802 27.5249 14.8818 24.6557 16.5914 21.4585C16.864 20.9491 18.2521 18.2917 21.514 16.4287C23.559 15.2601 25.442 14.9808 26.2187 14.8917C27.2281 14.776 29.1853 14.6615 31.5143 15.419C32.1153 15.6143 34.2037 16.3034 36.2783 18.2539C36.714 18.6629 38.1921 20.0635 39.2255 22.4824C39.5425 23.2266 40.415 25.385 40.1744 28.3685C39.7969 33.0557 36.8748 35.7777 36.3365 36.2784C32.6856 39.6818 28.4793 39.4594 27.7083 39.4115ZM18.9832 34.5391L21.3897 30.4853H34.7773L36.7254 33.7682C36.8383 33.5684 36.9181 33.4119 36.9683 33.3127C37.2614 32.7351 38.1225 30.9626 38.1237 28.4252C38.1237 28.0461 38.1556 25.7619 36.8178 23.3326C36.7585 23.2246 35.8666 21.4946 34.0029 20.0624C33.7189 19.8451 31.6397 18.1923 28.4667 17.9492C26.8871 17.8284 25.7123 18.0806 25.3793 18.1502C23.3605 18.5708 21.9326 19.55 21.6897 19.7146C21.538 19.8172 19.8043 20.9288 18.5304 23.0934C18.3182 23.4535 17.0032 25.6207 17.0967 28.7654C17.107 29.1472 17.1389 31.8317 18.9832 34.5391ZM24.4612 30.0718C24.4999 30.0334 24.5353 29.9897 24.5649 29.9415L25.75 27.9925C27.1871 28.4272 28.9595 28.0357 30.0053 27.6582C30.2756 27.5607 30.5471 27.5103 30.8163 27.5049C31.4379 28.054 32.0686 28.4521 32.7426 28.2707L33.5456 28.8607L33.3471 29.0989L33.3243 29.1052C33.0586 29.1762 32.8692 29.4121 32.859 29.6872V29.6881L32.7928 29.7673C32.6366 29.9566 32.3765 30.0245 32.1473 29.9358L30.4844 29.2927C30.36 29.2449 30.2198 29.2725 30.124 29.3637L29.6255 29.834C29.4647 29.9867 29.2503 30.0718 29.0279 30.0718H24.4612ZM25.8321 27.8552L25.7215 26.469L25.6051 27.9316L24.4315 29.8607C24.3391 30.0131 24.1737 30.1061 23.9958 30.1061H22.1231L22.139 29.8266L23.1792 29.2052L23.226 27.6442L22.6511 27.3335L22.2006 26.0597L22.496 25.687L22.3569 24.9258L21.6885 23.823C21.8984 23.5767 21.9303 23.1339 21.8744 22.5959L23.267 21.8969L23.3868 21.3501L24.4999 21.4231C26.4947 21.8132 27.5748 22.6604 28.2808 23.694C28.2535 23.9316 28.1999 24.103 28.1873 24.1444C27.9432 24.9223 27.4095 25.0821 27.2008 25.1326C27.1802 25.1376 27.162 25.1526 27.1586 25.1549C27.1528 25.1595 27.1209 25.1859 27.1152 25.2343C27.1141 25.2417 27.1095 25.2844 27.1414 25.3237C27.146 25.3295 27.1722 25.362 27.2213 25.3674C27.2532 25.371 27.2532 25.3688 27.2829 25.3582C28.136 25.0607 28.3093 24.2515 28.331 23.7564C29.4864 24.1496 30.9075 24.1054 32.4221 23.9085C33.3927 23.8993 34.6462 24.5432 34.8446 25.2287C35.1229 26.1876 34.8196 27.3139 34.5242 27.6311C34.3816 27.4473 34.2037 26.9688 34.4204 25.7516C34.4409 25.6359 34.4603 25.5435 34.4603 25.5432C34.4591 25.5273 34.4614 25.511 34.4569 25.4957C34.4557 25.4887 34.4443 25.4481 34.4032 25.4226C34.3975 25.4188 34.3611 25.3965 34.312 25.4087C34.3052 25.4104 34.2641 25.4206 34.239 25.4624C34.2196 25.4937 34.2242 25.4954 34.2196 25.5318C34.0702 26.99 34.336 27.4729 34.4842 27.642C34.5185 27.6814 34.5515 27.7083 34.58 27.7263L35.0785 28.2111C35.0591 29.1474 34.9519 29.8793 34.6428 30.1528H32.997L33.0141 29.6932C33.0221 29.4862 33.1646 29.3086 33.3642 29.2553L33.7269 29.1586V28.8014L32.3754 27.8073C32.2716 27.7422 32.1667 27.6836 32.0606 27.6321C31.8416 27.3833 31.7013 27.1301 31.6728 27.0798C31.2337 26.2876 31.3021 25.6134 31.3363 25.3577C31.3432 25.3109 31.3147 25.2755 31.3101 25.2698C31.2998 25.2579 31.2873 25.2477 31.2748 25.2404C31.2679 25.2368 31.2303 25.2165 31.1812 25.2314C31.1744 25.2334 31.1345 25.2457 31.1117 25.2889C31.0957 25.3184 31.098 25.3195 31.0968 25.353C31.0375 26.4577 31.6181 27.2299 31.9625 27.5864C31.3192 27.302 30.6304 27.2672 29.9517 27.5121C28.9401 27.8776 27.2293 28.2621 25.8321 27.8552ZM24.9368 22.2083C24.9345 22.2125 24.9288 22.2138 24.9265 22.2181C24.9231 22.2267 24.9333 22.48 24.8067 22.7778C24.4691 23.5739 23.5191 23.9221 23.0697 25.1886C23.0537 25.2341 23.0743 25.2739 23.0777 25.2804C23.1005 25.3248 23.1416 25.3377 23.1484 25.3398C23.1553 25.3421 23.1952 25.3548 23.2396 25.3319C23.2533 25.3248 23.2659 25.3151 23.2761 25.3033C23.2967 25.2782 23.2944 25.2765 23.3035 25.2448C23.7255 23.7903 24.9721 23.4761 24.947 22.2329L24.9459 22.2182C24.9459 22.2106 24.9425 22.2136 24.9368 22.2083ZM23.0617 27.9395L23.0275 29.1155L22.0592 29.6932C22.0147 29.7196 21.9862 29.7664 21.9839 29.8179L21.9702 30.0718H21.4593C21.4832 29.7151 21.5505 29.2787 21.684 28.7183C21.7513 28.4299 21.9759 28.204 22.2633 28.1338L23.0617 27.9395Z" fill="#135875"/>
<path fill-rule="evenodd" clip-rule="evenodd" d="M80.4483 37.1502H77V20.3025H80.4483V37.1502ZM84.0779 34.7608L86.2254 32.5525C87.4352 33.7624 88.7965 34.3372 90.2786 34.3372C91.065 34.3372 91.67 34.1859 92.154 33.823C92.6077 33.4903 92.8496 33.0366 92.8496 32.4619C92.8496 32.0082 92.6984 31.6451 92.3959 31.3427C92.0934 31.0402 91.67 30.7681 91.186 30.5564C90.6718 30.3446 90.1272 30.1631 89.5525 29.9514C88.9476 29.7699 88.3427 29.5279 87.7377 29.2859C87.163 29.0137 86.5885 28.6811 86.1046 28.3484C85.5904 27.9854 85.1971 27.5015 84.8947 26.8966C84.5922 26.2916 84.4105 25.596 84.4105 24.7793C84.4105 23.3577 84.9249 22.2082 85.9533 21.331C86.9817 20.4538 88.3728 20 90.0969 20C91.1253 20 92.1237 20.2118 93.1521 20.6655C94.1805 21.1192 95.0273 21.8148 95.7532 22.7222L93.3639 24.6582C93.0009 24.1742 92.5471 23.8112 91.9422 23.539C91.3675 23.2667 90.7929 23.1459 90.1879 23.1157C89.462 23.1157 88.8871 23.2669 88.4333 23.5694C88.0099 23.9021 87.7681 24.2649 87.7681 24.7489C87.7681 25.1723 87.9798 25.5353 88.4032 25.8681C88.8267 26.1705 89.3408 26.4126 89.9457 26.5941C90.5809 26.8058 91.2466 27.0174 92.0027 27.3199C92.7287 27.5921 93.3939 27.925 94.0291 28.2577C94.634 28.5904 95.1786 29.1045 95.5718 29.8002C95.9953 30.4959 96.2069 31.3124 96.2069 32.2501C96.2069 33.8229 95.6626 35.0631 94.5737 36.031C93.5151 36.9989 92.0935 37.4831 90.3391 37.4831H90.2482C87.7377 37.4831 85.681 36.5756 84.0779 34.7608ZM101.803 22.571C103.496 20.8469 105.553 20 107.973 20C109.365 20 110.635 20.3026 111.815 20.8773C113.024 21.4822 114.023 22.2988 114.839 23.3272L111.966 25.4143C110.907 24.1742 109.576 23.539 107.973 23.539C106.552 23.539 105.341 24.0532 104.313 25.0513C103.285 26.0797 102.771 27.2897 102.771 28.7415C102.771 30.1631 103.285 31.4033 104.313 32.4317C105.311 33.4299 106.552 33.9441 107.973 33.9441C109.606 33.9441 110.937 33.3088 111.966 32.0687L115.021 33.9137C114.204 35.0328 113.176 35.91 111.966 36.5452C110.726 37.1804 109.425 37.5132 107.973 37.5132C105.553 37.5132 103.496 36.636 101.803 34.9422C100.109 33.2181 99.262 31.1613 99.262 28.7415C99.262 26.3218 100.109 24.2648 101.803 22.571ZM124.972 20.3025C126.757 20.3025 128.208 20.8167 129.297 21.8754C130.386 22.934 130.931 24.2347 130.931 25.8075C130.931 26.8964 130.628 27.8945 130.054 28.7717C129.449 29.6488 128.662 30.2841 127.634 30.647L131.263 37.1502H127.301L124.185 31.3427H121.947V37.1502H118.499V20.3025H124.972ZM124.881 27.9552C125.668 27.9552 126.272 27.7433 126.696 27.3199C127.15 26.9266 127.392 26.4124 127.392 25.8075C127.392 25.2026 127.15 24.6884 126.696 24.2951C126.242 23.8717 125.637 23.6601 124.881 23.6601H121.947V27.9552H124.881ZM133.653 34.7608L135.8 32.5525C137.01 33.7624 138.371 34.3372 139.853 34.3372C140.64 34.3372 141.275 34.1859 141.729 33.823C142.213 33.4903 142.424 33.0366 142.424 32.4619C142.424 32.0082 142.273 31.6451 141.971 31.3427C141.668 31.0402 141.275 30.7681 140.761 30.5564C140.247 30.3446 139.702 30.1631 139.128 29.9514C138.523 29.7699 137.918 29.5279 137.343 29.2859C136.738 29.0137 136.194 28.6811 135.679 28.3484C135.165 27.9854 134.772 27.5015 134.469 26.8966C134.167 26.2916 134.016 25.596 134.016 24.7793C134.016 23.3577 134.53 22.2082 135.528 21.331C136.557 20.4538 137.948 20 139.672 20C140.7 20 141.729 20.2118 142.727 20.6655C143.755 21.1192 144.633 21.8148 145.358 22.7222L142.939 24.6582C142.576 24.1742 142.122 23.8112 141.547 23.539C140.942 23.2667 140.368 23.1459 139.793 23.1157C139.067 23.1157 138.462 23.2669 138.039 23.5694C137.585 23.9021 137.343 24.2649 137.343 24.7489C137.343 25.1723 137.555 25.5353 137.978 25.8681C138.402 26.1705 138.916 26.4126 139.551 26.5941C140.156 26.8058 140.852 27.0174 141.578 27.3199C142.303 27.5921 142.969 27.925 143.604 28.2577C144.239 28.5904 144.753 29.1045 145.147 29.8002C145.57 30.4959 145.782 31.3124 145.782 32.2501C145.782 33.8229 145.238 35.0631 144.179 36.031C143.09 36.9989 141.668 37.4831 139.914 37.4831H139.823C137.343 37.4831 135.286 36.5756 133.653 34.7608Z" fill="#92563D"/>
</svg>
