<svg width="100%" height="100%" viewBox="0 0 315 86" fill="none" xmlns="http://www.w3.org/2000/svg">
<path d="M26.6172 44.4835V0.835938H38.0138L52.3413 23.4388L66.6651 0.835938H78.0617V44.4835H66.7968V18.5368L55.2722 36.7696H49.4103L37.882 18.5368V44.4835H26.6172Z" fill="#38738C"/>
<path d="M91.8662 6.63607C96.6859 2.21432 102.525 0 109.384 0C116.202 0 122.019 2.21432 126.839 6.63607C131.655 11.0613 134.066 16.402 134.066 22.6615C134.066 28.9591 131.655 34.3308 126.839 38.7733C122.019 43.2192 116.202 45.4405 109.384 45.4405C102.525 45.4405 96.6859 43.2192 91.8662 38.7733C87.0502 34.3308 84.6384 28.9591 84.6384 22.6615C84.6384 16.402 87.0502 11.0613 91.8662 6.63607ZM100.072 31.2114C102.634 33.6019 105.738 34.7971 109.384 34.7971C112.989 34.7971 116.07 33.6122 118.633 31.239C121.195 28.8692 122.474 26.0089 122.474 22.6615C122.474 19.3521 121.195 16.5125 118.633 14.1392C116.07 11.7694 112.989 10.5846 109.384 10.5846C105.784 10.5846 102.68 11.7694 100.072 14.1392C97.4685 16.5125 96.1667 19.3521 96.1667 22.6615C96.1667 26.0089 97.4685 28.8589 100.072 31.2114Z" fill="#92563D"/>
<path d="M146.242 6.63607C151.061 2.21432 156.901 0 163.76 0C167.624 0 171.251 0.766868 174.637 2.30066C178.024 3.83791 180.864 5.93825 183.167 8.60858L173.791 14.9476C171.142 12.0389 167.797 10.5846 163.76 10.5846C160.155 10.5846 157.051 11.7694 154.448 14.1392C151.844 16.5125 150.542 19.3521 150.542 22.6615C150.542 26.0089 151.833 28.8692 154.418 31.239C156.999 33.6122 160.114 34.7971 163.76 34.7971C167.842 34.7971 171.142 33.3842 173.659 30.5515L183.686 36.1133C181.387 39.022 178.497 41.3054 175.025 42.9601C171.552 44.6149 167.797 45.4405 163.76 45.4405C156.901 45.4405 151.061 43.2192 146.242 38.7733C141.426 34.3308 139.014 28.9591 139.014 22.6615C139.014 16.402 141.426 11.0613 146.242 6.63607Z" fill="#38738C"/>
<path d="M201.4 0.835938H213.511L229.336 44.4835H216.965L214.489 36.8319H200.489L198.013 44.4835H185.575L201.4 0.835938ZM211.427 27.2628L207.457 14.9476L203.548 27.2628H211.427Z" fill="#38738C"/>
<path d="M230.314 0.835938H267.04V10.7642H254.342V44.4835H243.077V10.7642H230.314V0.835938Z" fill="#38738C"/>
<path d="M290.841 31.7502C291.274 32.8246 292.113 33.702 293.347 34.3791C294.585 35.0562 295.943 35.3947 297.418 35.3947C299.329 35.3947 300.955 34.8075 302.302 33.633C303.649 32.455 304.322 30.9903 304.322 29.2389C304.322 27.484 303.66 26.0192 302.335 24.8412C301.011 23.6667 299.416 23.0795 297.55 23.0795C295.16 23.0795 293.294 23.8947 291.947 25.5321H281.397L283.286 0.835938H313.111V9.86604H293.185L292.73 16.1428C294.641 14.8681 296.812 14.229 299.243 14.229C303.799 14.229 307.565 15.6558 310.541 18.5057C313.514 21.3557 315 25.014 315 29.4772C315 33.9404 313.277 37.6575 309.823 40.6283C306.373 43.5958 302.174 45.0811 297.222 45.0811C293.445 45.0811 290.058 44.1761 287.064 42.3625C284.069 40.5489 281.943 38.1445 280.682 35.1564L290.841 31.7502Z" fill="#92563D"/>
<path d="M15.3588 45.4401H13.3157L8.05096 40.3227C7.01924 39.2867 6.10322 38.7688 5.30528 38.7688C4.71368 38.7688 4.23898 38.9396 3.88116 39.2802C3.52334 39.6218 3.34443 40.0511 3.34443 40.5691C3.34443 41.0115 3.48518 41.4003 3.76786 41.7343C4.04934 42.0694 4.39045 42.3191 4.79001 42.4833L3.73685 45.3076C2.66339 45.0294 1.77239 44.4512 1.06272 43.573C0.354232 42.6947 0 41.7003 0 40.5877C0 39.198 0.485437 38.0361 1.45513 37.1009C2.42602 36.1657 3.71655 35.6981 5.32674 35.6981C6.78546 35.6981 8.39565 36.5446 10.1573 38.2376L12.2422 40.4935V35.3761H15.3588V45.4401Z" fill="#38738C"/>
<path d="M2.12664 32.3623C0.750227 31.3516 0.0620117 30.0309 0.0620117 28.4003C0.0620117 26.7708 0.753785 25.4501 2.13616 24.4393C3.51974 23.4285 5.41621 22.9237 7.82434 22.9237C10.2325 22.9237 12.1313 23.4285 13.522 24.4393C14.9259 25.4501 15.6272 26.7708 15.6272 28.4003C15.6272 30.0309 14.9282 31.3516 13.5316 32.3623C12.1349 33.3731 10.2325 33.878 7.82434 33.878C5.41621 33.878 3.51618 33.3731 2.12664 32.3623ZM7.80285 30.7514C9.33074 30.7514 10.4555 30.5357 11.1783 30.1064C11.9011 29.6772 12.2625 29.1088 12.2625 28.4003C12.2625 27.706 11.9011 27.1398 11.1783 26.704C10.4555 26.2681 9.33074 26.0502 7.80285 26.0502C6.3167 26.0502 5.21581 26.2681 4.50017 26.704C3.78453 27.1398 3.42671 27.706 3.42671 28.4003C3.42671 29.1088 3.78453 29.6772 4.50017 30.1064C5.21581 30.5357 6.3167 30.7514 7.80285 30.7514Z" fill="#38738C"/>
<path d="M15.3588 21.8428H13.3157L8.05096 16.7254C7.01924 15.6894 6.10322 15.1715 5.30528 15.1715C4.71368 15.1715 4.23898 15.3412 3.88116 15.6829C3.52334 16.0245 3.34443 16.4538 3.34443 16.9718C3.34443 17.4142 3.48518 17.803 3.76786 18.137C4.04934 18.4721 4.39045 18.7218 4.79001 18.886L3.73685 21.7103C2.66339 21.4321 1.77239 20.854 1.06272 19.9757C0.354232 19.0974 0 18.103 0 16.9904C0 15.6007 0.485437 14.4378 1.45513 13.5036C2.42602 12.5684 3.71655 12.1008 5.32674 12.1008C6.78546 12.1008 8.39565 12.9473 10.1573 14.6403L12.2422 16.8962V11.7789H15.3588V21.8428Z" fill="#38738C"/>
<path d="M7.05983 9.5613L0.268402 5.27726L0.268402 1.54296L5.05841 4.6903C5.1264 3.48898 5.65003 2.45956 6.62688 1.59991C7.60373 0.741351 8.78692 0.310975 10.1776 0.310975C11.7187 0.310975 12.9985 0.80377 14.0171 1.78936C15.0488 2.78809 15.5652 3.9949 15.5652 5.40976C15.5652 6.82573 15.0524 8.0227 14.0278 9.00172C13.002 9.98074 11.7187 10.4702 10.1776 10.4702C8.96583 10.4702 7.92694 10.1669 7.05983 9.5613ZM11.622 6.79399C12.0216 6.41508 12.2208 5.95293 12.2208 5.40976C12.2208 4.85455 12.0216 4.38369 11.622 3.99822C11.2237 3.61274 10.7418 3.41998 10.1776 3.41998C9.61349 3.41998 9.1352 3.61274 8.74279 3.99822C8.35038 4.38369 8.15478 4.85455 8.15478 5.40976C8.15478 5.95293 8.35038 6.41508 8.74279 6.79399C9.1352 7.17289 9.61349 7.36234 10.1776 7.36234C10.7418 7.36234 11.2237 7.17289 11.622 6.79399Z" fill="#38738C"/>
<path d="M0.434906 65.7927V56.0808H2.33433L6.07158 61.934L9.79544 56.0808H11.6949V65.7927H9.86767V58.9276L6.57984 64.0758H5.54993L2.27548 58.9276V65.7927H0.434906Z" fill="#38738C"/>
<path d="M13.8672 56.0808H20.4749V57.6234H15.6944V60.0574H20.186V61.5877H15.6944V64.1691H20.6194V65.7927H13.8672V56.0808Z" fill="#38738C"/>
<path d="M21.882 64.4098L23.027 63.3438C23.8269 64.0635 24.7365 64.422 25.7504 64.422C26.3202 64.422 26.7777 64.3066 27.1201 64.0757C27.4625 63.8449 27.6337 63.5256 27.6337 63.1178C27.6337 62.7371 27.4438 62.4252 27.0612 62.1795C26.6814 61.9364 26.2186 61.735 25.6782 61.5753C25.1378 61.4157 24.5947 61.2388 24.0543 61.0423C23.5139 60.8482 23.0511 60.5437 22.6713 60.131C22.2887 59.7184 22.0987 59.1977 22.0987 58.5689C22.0987 57.7878 22.4117 57.1517 23.0404 56.6604C23.6691 56.1667 24.5171 55.9211 25.5899 55.9211C26.2373 55.9211 26.8793 56.0488 27.5187 56.3067C28.1554 56.5646 28.6958 56.9576 29.1399 57.4906L27.8504 58.4215C27.6096 58.1194 27.2887 57.8861 26.8874 57.7166C26.4861 57.5471 26.0794 57.4587 25.6621 57.4513H25.6059C25.103 57.4513 24.691 57.552 24.3673 57.7559C24.0436 57.9598 23.8805 58.2226 23.8805 58.5419C23.8805 58.8342 24.0195 59.0847 24.2951 59.2935C24.5679 59.5023 24.9104 59.6619 25.3143 59.7724C25.721 59.883 26.165 60.0205 26.6492 60.1851C27.1308 60.3496 27.5749 60.529 27.9815 60.723C28.3881 60.9195 28.7279 61.2142 29.0034 61.6097C29.279 62.0027 29.4154 62.4718 29.4154 63.0122C29.4154 63.9087 29.0783 64.6235 28.4015 65.1614C27.7247 65.6968 26.8312 65.9646 25.721 65.9646C24.1667 65.9474 22.8852 65.4291 21.882 64.4098Z" fill="#38738C"/>
<path d="M32.2993 57.3973C33.3641 56.4222 34.6535 55.9334 36.1703 55.9334C37.6658 55.9334 38.9498 56.4247 40.0172 57.4047C41.0847 58.3847 41.617 59.5612 41.617 60.9367C41.617 62.3294 41.0847 63.5157 40.0172 64.4957C38.9498 65.4758 37.6658 65.9646 36.1703 65.9646C34.6535 65.9646 33.3614 65.4758 32.294 64.4957C31.2266 63.5157 30.6915 62.3294 30.6915 60.9367C30.6915 59.5538 31.2266 58.3724 32.2993 57.3973ZM32.5615 60.9367C32.5615 61.8602 32.9146 62.6413 33.6182 63.2848C34.3244 63.9284 35.1752 64.2501 36.1703 64.2501C37.1548 64.2501 37.9948 63.9284 38.6904 63.2848C39.3859 62.6413 39.7337 61.8602 39.7337 60.9367C39.7337 60.023 39.3832 59.2468 38.6823 58.6082C37.9841 57.9696 37.1441 57.6503 36.1703 57.6503C35.1752 57.6503 34.3244 57.9696 33.6182 58.6082C32.9146 59.2468 32.5615 60.023 32.5615 60.9367Z" fill="#38738C"/>
<path d="M47.3982 56.0808C48.4924 56.0808 49.3726 56.3805 50.044 56.9799C50.7155 57.5767 51.0498 58.316 51.0498 59.1928C51.0498 60.0795 50.7155 60.8238 50.044 61.4231C49.3726 62.02 48.4924 62.3197 47.3982 62.3197H45.1965V65.7927H43.356V56.0808H47.3982ZM47.3714 60.6715C47.9118 60.6715 48.3479 60.529 48.6823 60.2441C49.014 59.9617 49.1826 59.6104 49.1826 59.1928C49.1826 58.7851 49.014 58.4388 48.6823 58.1563C48.3479 57.8714 47.9118 57.7314 47.3714 57.7314H45.1965V60.6715H47.3714Z" fill="#38738C"/>
<path d="M53.7464 57.3973C54.8085 56.4222 56.0979 55.9334 57.6147 55.9334C59.1129 55.9334 60.3942 56.4247 61.4617 57.4047C62.5291 58.3847 63.0642 59.5612 63.0642 60.9367C63.0642 62.3294 62.5291 63.5157 61.4617 64.4957C60.3942 65.4758 59.1129 65.9646 57.6147 65.9646C56.0979 65.9646 54.8058 65.4758 53.7384 64.4957C52.671 63.5157 52.1387 62.3294 52.1387 60.9367C52.1387 59.5538 52.6736 58.3724 53.7464 57.3973ZM54.006 60.9367C54.006 61.8602 54.3591 62.6413 55.0653 63.2848C55.7689 63.9284 56.6196 64.2501 57.6147 64.2501C58.6019 64.2501 59.442 63.9284 60.1375 63.2848C60.8331 62.6413 61.1808 61.8602 61.1808 60.9367C61.1808 60.023 60.8303 59.2468 60.1294 58.6082C59.4285 57.9696 58.5912 57.6503 57.6147 57.6503C56.6196 57.6503 55.7689 57.9696 55.0653 58.6082C54.3591 59.2468 54.006 60.023 54.006 60.9367Z" fill="#38738C"/>
<path d="M64.0059 56.0808H72.0341V57.7044H68.9469V65.7927H67.1064V57.7044H64.0059V56.0808Z" fill="#38738C"/>
<path d="M76.2208 56.0808H78.2059L81.9591 65.7927H79.9448L79.0914 63.5453H75.338L74.4819 65.7927H72.4675L76.2208 56.0808ZM78.583 61.9733L77.2053 58.3701L75.8597 61.9733H78.583Z" fill="#38738C"/>
<path d="M83.1923 65.7927V56.0808H85.0891L88.829 61.934L92.5529 56.0808H94.4495V65.7927H92.6251V58.9276L89.3345 64.0758H88.3073L85.0302 58.9276V65.7927H83.1923Z" fill="#38738C"/>
<path d="M98.4648 56.0808H96.6244V65.7932H98.4648V56.0808Z" fill="#38738C"/>
<path d="M103.449 56.0808H105.434L109.188 65.7927H107.173L106.32 63.5453H102.566L101.71 65.7927H99.6958L103.449 56.0808ZM105.811 61.9733L104.434 58.3701L103.088 61.9733H105.811Z" fill="#38738C"/>
<path d="M115.506 57.3973C116.568 56.4222 117.858 55.9334 119.374 55.9334C120.873 55.9334 122.154 56.4247 123.221 57.4047C124.289 58.3847 124.824 59.5612 124.824 60.9367C124.824 62.3294 124.289 63.5157 123.221 64.4957C122.154 65.4758 120.873 65.9646 119.374 65.9646C117.858 65.9646 116.566 65.4758 115.498 64.4957C114.431 63.5157 113.898 62.3294 113.898 60.9367C113.898 59.5538 114.433 58.3724 115.506 57.3973ZM115.766 60.9367C115.766 61.8602 116.119 62.6413 116.825 63.2848C117.529 63.9284 118.379 64.2501 119.374 64.2501C120.359 64.2501 121.202 63.9284 121.895 63.2848C122.593 62.6413 122.941 61.8602 122.941 60.9367C122.941 60.023 122.59 59.2468 121.889 58.6082C121.188 57.9696 120.351 57.6503 119.374 57.6503C118.379 57.6503 117.529 57.9696 116.825 58.6082C116.119 59.2468 115.766 60.023 115.766 60.9367Z" fill="#38738C"/>
<path d="M130.605 56.0808C131.696 56.0808 132.579 56.3805 133.251 56.9799C133.919 57.5767 134.257 58.316 134.257 59.1928C134.257 60.0795 133.919 60.8238 133.251 61.4231C132.579 62.02 131.696 62.3197 130.605 62.3197H128.403V65.7927H126.563V56.0808H130.605ZM130.575 60.6715C131.116 60.6715 131.555 60.529 131.886 60.2441C132.221 59.9617 132.387 59.6104 132.387 59.1928C132.387 58.7851 132.221 58.4388 131.886 58.1563C131.555 57.8714 131.116 57.7314 130.575 57.7314H128.403V60.6715H130.575Z" fill="#38738C"/>
<path d="M135.779 56.0808H137.619V60.1262H142.285V56.0808H144.109V65.7927H142.285V61.8137H137.619V65.7927H135.779V56.0808Z" fill="#38738C"/>
<path d="M145.487 56.0808H153.515V57.7044H150.428V65.7927H148.588V57.7044H145.487V56.0808Z" fill="#38738C"/>
<path d="M154.89 56.0808H156.731V60.1262H161.396V56.0808H163.224V65.7927H161.396V61.8137H156.731V65.7927H154.89V56.0808Z" fill="#38738C"/>
<path d="M168.208 56.0808H170.193L173.946 65.7927H171.931L171.078 63.5453H167.325L166.469 65.7927H164.454L168.208 56.0808ZM170.57 61.9733L169.195 58.3701L167.846 61.9733H170.57Z" fill="#38738C"/>
<path d="M182.076 65.7927H175.179V56.0808H177.02V64.1176H182.076V65.7927Z" fill="#38738C"/>
<path d="M183.454 65.7927V56.0808H185.35L189.09 61.934L192.814 56.0808H194.711V65.7927H192.886V58.9276L189.596 64.0758H188.569L185.292 58.9276V65.7927H183.454Z" fill="#38738C"/>
<path d="M198.058 57.3973C199.122 56.4222 200.412 55.9334 201.929 55.9334C203.427 55.9334 204.708 56.4247 205.775 57.4047C206.843 58.3847 207.375 59.5612 207.375 60.9367C207.375 62.3294 206.843 63.5157 205.775 64.4957C204.708 65.4758 203.427 65.9646 201.929 65.9646C200.412 65.9646 199.12 65.4758 198.052 64.4957C196.985 63.5157 196.45 62.3294 196.45 60.9367C196.45 59.5538 196.987 58.3724 198.058 57.3973ZM198.32 60.9367C198.32 61.8602 198.673 62.6413 199.376 63.2848C200.083 63.9284 200.933 64.2501 201.929 64.2501C202.913 64.2501 203.753 63.9284 204.449 63.2848C205.144 62.6413 205.492 61.8602 205.492 60.9367C205.492 60.023 205.141 59.2468 204.443 58.6082C203.742 57.9696 202.905 57.6503 201.929 57.6503C200.933 57.6503 200.083 57.9696 199.376 58.6082C198.673 59.2468 198.32 60.023 198.32 60.9367Z" fill="#38738C"/>
<path d="M216.014 65.7927H209.114V56.0808H210.955V64.1176H216.014V65.7927Z" fill="#38738C"/>
<path d="M218.563 57.3973C219.625 56.4222 220.914 55.9334 222.431 55.9334C223.929 55.9334 225.211 56.4247 226.281 57.4047C227.348 58.3847 227.881 59.5612 227.881 60.9367C227.881 62.3294 227.348 63.5157 226.281 64.4957C225.211 65.4758 223.929 65.9646 222.431 65.9646C220.914 65.9646 219.622 65.4758 218.555 64.4957C217.488 63.5157 216.955 62.3294 216.955 60.9367C216.955 59.5538 217.49 58.3724 218.563 57.3973ZM218.825 60.9367C218.825 61.8602 219.176 62.6413 219.882 63.2848C220.588 63.9284 221.436 64.2501 222.431 64.2501C223.418 64.2501 224.259 63.9284 224.954 63.2848C225.65 62.6413 225.997 61.8602 225.997 60.9367C225.997 60.023 225.647 59.2468 224.946 58.6082C224.245 57.9696 223.408 57.6503 222.431 57.6503C221.436 57.6503 220.588 57.9696 219.882 58.6082C219.176 59.2468 218.825 60.023 218.825 60.9367Z" fill="#38738C"/>
<path d="M230.794 57.3973C231.856 56.4222 233.146 55.9334 234.662 55.9334C235.521 55.9334 236.329 56.1078 237.083 56.4516C237.835 56.798 238.469 57.277 238.98 57.891L237.343 58.7949C236.658 58.031 235.765 57.6503 234.662 57.6503C233.667 57.6503 232.817 57.9696 232.113 58.6082C231.407 59.2468 231.054 60.023 231.054 60.9367C231.054 61.8602 231.407 62.6413 232.113 63.2848C232.817 63.9284 233.667 64.2501 234.662 64.2501C235.551 64.2501 236.284 64.0192 236.859 63.5575C237.431 63.0957 237.774 62.4792 237.881 61.708H234.272V60.1655H239.879C239.938 60.4037 239.967 60.6616 239.967 60.9367C239.967 62.4276 239.475 63.6361 238.496 64.5694C237.514 65.5003 236.238 65.9646 234.662 65.9646C233.146 65.9646 231.853 65.4758 230.786 64.4957C229.719 63.5157 229.186 62.3294 229.186 60.9367C229.186 59.5538 229.721 58.3724 230.794 57.3973Z" fill="#38738C"/>
<path d="M242.849 56.0808L245.328 59.8855L247.806 56.0808H249.892L246.241 61.7351V65.7927H244.414V61.7351L240.762 56.0808H242.849Z" fill="#38738C"/>
<path d="M1.60942 77.1797C2.67147 76.2046 3.96091 75.7158 5.47775 75.7158C6.32846 75.7158 7.12834 75.8853 7.8774 76.2218C8.62378 76.5583 9.24978 77.0225 9.75272 77.6169L8.24655 78.6436C7.51087 77.8355 6.58796 77.4327 5.47775 77.4327C4.48257 77.4327 3.63185 77.752 2.92827 78.3906C2.22202 79.0293 1.8689 79.8054 1.8689 80.7191C1.8689 81.6402 2.22202 82.4238 2.92827 83.0673C3.63185 83.7084 4.48257 84.0301 5.47775 84.0301C6.02884 84.0301 6.54778 83.9195 7.03467 83.6985C7.52423 83.4774 7.92552 83.1753 8.24655 82.7946L9.86774 83.6985C9.36747 84.3371 8.73081 84.8382 7.96302 85.2017C7.19524 85.5652 6.36592 85.747 5.47775 85.747C3.96091 85.747 2.66879 85.2582 1.60138 84.2782C0.533978 83.2957 0.00161743 82.1093 0.00161743 80.7191C0.00161743 79.3338 0.536661 78.1549 1.60942 77.1797Z" fill="#38738C"/>
<path d="M12.6072 77.1797C13.6692 76.2046 14.9587 75.7158 16.4755 75.7158C17.9736 75.7158 19.2551 76.2046 20.3225 77.1846C21.3899 78.1671 21.9249 79.3436 21.9249 80.7191C21.9249 82.1093 21.3899 83.2957 20.3225 84.2782C19.2551 85.2582 17.9736 85.747 16.4755 85.747C14.9587 85.747 13.6665 85.2582 12.5991 84.2782C11.5317 83.2957 10.9994 82.1093 10.9994 80.7191C10.9994 79.3338 11.5344 78.1549 12.6072 77.1797ZM12.8693 80.7191C12.8693 81.6402 13.2198 82.4238 13.926 83.0673C14.6323 83.7084 15.4803 84.0301 16.4755 84.0301C17.4626 84.0301 18.3027 83.7084 18.9983 83.0673C19.6938 82.4238 20.0416 81.6402 20.0416 80.7191C20.0416 79.8054 19.6911 79.0293 18.9902 78.3906C18.2893 77.752 17.4519 77.4327 16.4755 77.4327C15.4803 77.4327 14.6323 77.752 13.926 78.3906C13.2198 79.0293 12.8693 79.8054 12.8693 80.7191Z" fill="#38738C"/>
<path d="M23.6638 85.575V75.8607H25.5043L30.8065 82.6079V75.8607H32.647V85.575H30.8065L25.5043 78.8278V85.575H23.6638Z" fill="#38738C"/>
<path d="M34.8221 75.8607H41.7188V77.4843H36.6466V79.9208H41.4298V81.5297H36.6466V85.575H34.8221V75.8607Z" fill="#38738C"/>
<path d="M43.356 75.8607H49.9637V77.4057H45.1832V79.8397H49.6748V81.37H45.1832V83.9514H50.1082V85.575H43.356V75.8607Z" fill="#38738C"/>
<path d="M55.8919 75.8607C56.9834 75.8607 57.8635 76.1603 58.535 76.7596C59.2065 77.359 59.5435 78.0983 59.5435 78.9752C59.5435 79.631 59.3375 80.2156 58.9256 80.7314C58.5163 81.2447 57.9732 81.596 57.2964 81.7827L59.7309 85.575H57.6308L55.4424 82.1019H53.6875V85.575H51.847V75.8607H55.8919ZM55.8625 80.4513C56.4029 80.4513 56.839 80.3113 57.1734 80.0264C57.5078 79.7415 57.6737 79.3927 57.6737 78.9752C57.6737 78.5674 57.5078 78.2211 57.1734 77.9386C56.839 77.6537 56.4029 77.5113 55.8625 77.5113H53.6875V80.4513H55.8625Z" fill="#38738C"/>
<path d="M61.1086 75.8607H67.7164V77.4057H62.933V79.8397H67.4247V81.37H62.933V83.9514H67.8607V85.575H61.1086V75.8607Z" fill="#38738C"/>
<path d="M69.5997 85.575V75.8607H71.4403L76.7425 82.6079V75.8607H78.583V85.575H76.7425L71.4403 78.8278V85.575H69.5997Z" fill="#38738C"/>
<path d="M81.9297 77.1797C82.9944 76.2046 84.2838 75.7158 85.8007 75.7158C86.6487 75.7158 87.4486 75.8853 88.1976 76.2218C88.9467 76.5583 89.5727 77.0225 90.0756 77.6169L88.5669 78.6436C87.8339 77.8355 86.9109 77.4327 85.8007 77.4327C84.8055 77.4327 83.9548 77.752 83.2485 78.3906C82.5449 79.0293 82.1919 79.8054 82.1919 80.7191C82.1919 81.6402 82.5449 82.4238 83.2485 83.0673C83.9548 83.7084 84.8055 84.0301 85.8007 84.0301C86.3491 84.0301 86.8708 83.9195 87.3577 83.6985C87.8446 83.4774 88.2486 83.1753 88.5669 82.7946L90.1907 83.6985C89.6878 84.3371 89.0537 84.8382 88.2859 85.2017C87.5155 85.5652 86.6888 85.747 85.8007 85.747C84.2838 85.747 82.9918 85.2582 81.9243 84.2782C80.8569 83.2957 80.3218 82.1093 80.3218 80.7191C80.3218 79.3338 80.8596 78.1549 81.9297 77.1797Z" fill="#38738C"/>
<path d="M91.7556 75.8607H98.3633V77.4057H93.5801V79.8397H98.0717V81.37H93.5801V83.9514H98.5078V85.575H91.7556V75.8607Z" fill="#38738C"/>
<path d="M104.158 75.8607H111.057V77.4843H105.985V79.9208H110.768V81.5297H105.985V85.575H104.158V75.8607Z" fill="#38738C"/>
<path d="M113.869 77.1797C114.931 76.2046 116.221 75.7158 117.737 75.7158C119.236 75.7158 120.517 76.2046 121.584 77.1846C122.652 78.1671 123.187 79.3436 123.187 80.7191C123.187 82.1093 122.652 83.2957 121.584 84.2782C120.517 85.2582 119.236 85.747 117.737 85.747C116.221 85.747 114.928 85.2582 113.861 84.2782C112.794 83.2957 112.259 82.1093 112.259 80.7191C112.259 79.3338 112.796 78.1549 113.869 77.1797ZM114.129 80.7191C114.129 81.6402 114.482 82.4238 115.188 83.0673C115.891 83.7084 116.742 84.0301 117.737 84.0301C118.722 84.0301 119.562 83.7084 120.257 83.0673C120.953 82.4238 121.301 81.6402 121.301 80.7191C121.301 79.8054 120.953 79.0293 120.252 78.3906C119.551 77.752 118.714 77.4327 117.737 77.4327C116.742 77.4327 115.891 77.752 115.188 78.3906C114.482 79.0293 114.129 79.8054 114.129 80.7191Z" fill="#38738C"/>
<path d="M128.968 75.8607C130.059 75.8607 130.939 76.1603 131.611 76.7596C132.282 77.359 132.619 78.0983 132.619 78.9752C132.619 79.631 132.413 80.2156 132.004 80.7314C131.592 81.2447 131.049 81.596 130.372 81.7827L132.807 85.575H130.707L128.518 82.1019H126.763V85.575H124.926V75.8607H128.968ZM128.938 80.4513C129.479 80.4513 129.918 80.3113 130.249 80.0264C130.584 79.7415 130.749 79.3927 130.749 78.9752C130.749 78.5674 130.584 78.2211 130.249 77.9386C129.918 77.6537 129.479 77.5113 128.938 77.5113H126.763V80.4513H128.938Z" fill="#38738C"/>
<path d="M140.907 75.8607H142.892L146.645 85.575H144.631L143.778 83.3251H140.024L139.168 85.575H137.154L140.907 75.8607ZM143.269 81.7556L141.892 78.1499L140.546 81.7556H143.269Z" fill="#38738C"/>
<path d="M151.225 75.8607C152.847 75.8607 154.182 76.3274 155.225 77.2583C156.268 78.1892 156.79 79.3436 156.79 80.7191C156.79 82.1093 156.276 83.2686 155.246 84.1897C154.216 85.1132 152.876 85.575 151.225 85.575H147.879V75.8607H151.225ZM149.717 77.5113V83.9245H151.225C152.336 83.9245 153.221 83.6174 153.885 82.9985C154.545 82.3844 154.877 81.6131 154.877 80.692C154.877 79.8054 154.537 79.0538 153.863 78.4373C153.186 77.8207 152.306 77.5113 151.225 77.5113H149.717Z" fill="#38738C"/>
<path d="M159.529 75.8607L162.266 83.0451L164.992 75.8607H166.99L163.181 85.575H161.34L157.515 75.8607H159.529Z" fill="#38738C"/>
<path d="M170.976 75.8607H172.961L176.715 85.575H174.7L173.844 83.3251H170.091L169.238 85.575H167.223L170.976 75.8607ZM173.339 81.7556L171.961 78.1499L170.613 81.7556H173.339Z" fill="#38738C"/>
<path d="M177.945 85.575V75.8607H179.786L185.091 82.6079V75.8607H186.931V85.575H185.091L179.786 78.8278V85.575H177.945Z" fill="#38738C"/>
<path d="M190.278 77.1797C191.34 76.2046 192.63 75.7158 194.146 75.7158C194.997 75.7158 195.797 75.8853 196.543 76.2218C197.292 76.5583 197.918 77.0225 198.421 77.6169L196.915 78.6436C196.18 77.8355 195.257 77.4327 194.146 77.4327C193.151 77.4327 192.301 77.752 191.597 78.3906C190.891 79.0293 190.538 79.8054 190.538 80.7191C190.538 81.6402 190.891 82.4238 191.597 83.0673C192.301 83.7084 193.151 84.0301 194.146 84.0301C194.697 84.0301 195.217 83.9195 195.703 83.6985C196.193 83.4774 196.594 83.1753 196.915 82.7946L198.536 83.6985C198.036 84.3371 197.399 84.8382 196.632 85.2017C195.864 85.5652 195.035 85.747 194.146 85.747C192.63 85.747 191.337 85.2582 190.27 84.2782C189.203 83.2957 188.67 82.1093 188.67 80.7191C188.67 79.3338 189.205 78.1549 190.278 77.1797Z" fill="#38738C"/>
<path d="M200.101 75.8607H206.709V77.4057H201.929V79.8397H206.42V81.37H201.929V83.9514H206.854V85.575H200.101V75.8607Z" fill="#38738C"/>
<path d="M211.942 75.8607C213.563 75.8607 214.898 76.3274 215.941 77.2583C216.985 78.1892 217.506 79.3436 217.506 80.7191C217.506 82.1093 216.99 83.2686 215.963 84.1897C214.933 85.1132 213.592 85.575 211.942 85.575H208.593V75.8607H211.942ZM210.433 77.5113V83.9245H211.942C213.052 83.9245 213.938 83.6174 214.601 82.9985C215.262 82.3844 215.594 81.6131 215.594 80.692C215.594 79.8054 215.254 79.0538 214.577 78.4373C213.903 77.8207 213.023 77.5113 211.942 77.5113H210.433Z" fill="#38738C"/>
<path d="M222.359 75.8607H230.387V77.4843H227.3V85.575H225.46V77.4843H222.359V75.8607Z" fill="#38738C"/>
<path d="M231.765 75.8607H238.373V77.4057H233.59V79.8397H238.081V81.37H233.59V83.9514H238.517V85.575H231.765V75.8607Z" fill="#38738C"/>
<path d="M241.431 77.1797C242.493 76.2046 243.782 75.7158 245.299 75.7158C246.15 75.7158 246.947 75.8853 247.696 76.2218C248.445 76.5583 249.071 77.0225 249.574 77.6169L248.065 78.6436C247.332 77.8355 246.409 77.4327 245.299 77.4327C244.304 77.4327 243.453 77.752 242.747 78.3906C242.043 79.0293 241.69 79.8054 241.69 80.7191C241.69 81.6402 242.043 82.4238 242.747 83.0673C243.453 83.7084 244.304 84.0301 245.299 84.0301C245.85 84.0301 246.369 83.9195 246.856 83.6985C247.345 83.4774 247.747 83.1753 248.065 82.7946L249.689 83.6985C249.186 84.3371 248.552 84.8382 247.784 85.2017C247.016 85.5652 246.187 85.747 245.299 85.747C243.782 85.747 242.49 85.2582 241.423 84.2782C240.355 83.2957 239.82 82.1093 239.82 80.7191C239.82 79.3338 240.358 78.1549 241.431 77.1797Z" fill="#38738C"/>
<path d="M251.254 75.8607H253.095V79.9061H257.76V75.8607H259.587V85.575H257.76V81.596H253.095V85.575H251.254V75.8607Z" fill="#38738C"/>
<path d="M261.76 85.575V75.8607H263.6L268.905 82.6079V75.8607H270.745V85.575H268.905L263.6 78.8278V85.575H261.76Z" fill="#38738C"/>
<path d="M274.758 75.8607H272.918V85.5731H274.758V75.8607Z" fill="#38738C"/>
<path d="M278.105 77.1797C279.167 76.2046 280.457 75.7158 281.973 75.7158C283.472 75.7158 284.756 76.2046 285.823 77.1846C286.89 78.1671 287.423 79.3436 287.423 80.7191C287.423 81.9497 286.992 83.0255 286.133 83.9368L287.249 85.0961L286.104 86L285.047 84.8431C284.167 85.4449 283.142 85.747 281.973 85.747C280.457 85.747 279.164 85.2582 278.1 84.2782C277.03 83.2957 276.497 82.1093 276.497 80.7191C276.497 79.3338 277.032 78.1549 278.105 77.1797ZM278.367 80.7191C278.367 81.6402 278.718 82.4238 279.424 83.0673C280.13 83.7084 280.978 84.0301 281.973 84.0301C282.661 84.0301 283.274 83.8434 283.814 83.4725L282.741 82.3157L283.771 81.5026L284.814 82.5687C285.299 82.0185 285.539 81.402 285.539 80.7191C285.539 79.8054 285.189 79.0293 284.488 78.3906C283.787 77.752 282.95 77.4327 281.973 77.4327C280.978 77.4327 280.13 77.752 279.424 78.3906C278.718 79.0293 278.367 79.8054 278.367 80.7191Z" fill="#38738C"/>
<path d="M291.002 75.8607V81.876C291.002 82.5686 291.211 83.1041 291.633 83.4848C292.053 83.868 292.596 84.0571 293.263 84.0571C293.929 84.0571 294.483 83.868 294.921 83.4848C295.36 83.1041 295.582 82.5686 295.582 81.876V75.8607H297.423V81.876C297.423 83.0377 297.029 83.9735 296.248 84.6834C295.464 85.3932 294.48 85.747 293.292 85.747C292.104 85.747 291.117 85.3932 290.336 84.6834C289.552 83.9735 289.162 83.0377 289.162 81.876V75.8607H291.002Z" fill="#38738C"/>
<path d="M299.451 75.8607H306.058V77.4057H301.275V79.8397H305.769V81.37H301.275V83.9514H306.203V85.575H299.451V75.8607Z" fill="#38738C"/>
<path d="M307.463 84.1897L308.608 83.1262C309.41 83.8434 310.317 84.2044 311.334 84.2044C311.903 84.2044 312.358 84.089 312.701 83.8581C313.046 83.6272 313.217 83.3079 313.217 82.9002C313.217 82.5194 313.024 82.2051 312.644 81.9619C312.262 81.7188 311.802 81.5174 311.261 81.3577C310.718 81.1981 310.178 81.0187 309.637 80.8247C309.097 80.6306 308.634 80.3261 308.254 79.9134C307.872 79.5008 307.682 78.9801 307.682 78.3488C307.682 77.5702 307.995 76.9341 308.624 76.4404C309.25 75.9491 310.1 75.7035 311.173 75.7035C311.821 75.7035 312.463 75.8312 313.099 76.0891C313.739 76.3445 314.279 76.74 314.723 77.273L313.434 78.2039C313.193 77.9018 312.872 77.666 312.471 77.4989C312.069 77.3295 311.66 77.2411 311.245 77.2313H311.186C310.686 77.2313 310.272 77.3344 309.948 77.5383C309.624 77.7421 309.464 78.0049 309.464 78.3243C309.464 78.6165 309.6 78.8671 309.876 79.0759C310.151 79.2846 310.491 79.4443 310.898 79.5548C311.304 79.6654 311.748 79.8029 312.23 79.965C312.714 80.1296 313.158 80.3113 313.565 80.5053C313.969 80.6994 314.311 80.9942 314.587 81.3896C314.862 81.7851 314.999 82.2517 314.999 82.7946C314.999 83.6886 314.662 84.4058 313.985 84.9413C313.308 85.4792 312.414 85.7469 311.304 85.7469C309.747 85.7297 308.468 85.2115 307.463 84.1897Z" fill="#38738C"/>
</svg>
